{"glyphs":{"0":{"ha":1000,"x_min":0,"x_max":806,"o":"m 667 972 l 806 972 l 806 833 l 667 833 l 667 972 m 500 1139 l 639 1139 l 639 1000 l 500 1000 l 500 1139 m 333 1139 l 472 1139 l 472 1000 l 333 1000 l 333 1139 m 167 1139 l 306 1139 l 306 1000 l 167 1000 l 167 1139 m 0 972 l 139 972 l 139 833 l 0 833 l 0 972 m 667 806 l 806 806 l 806 667 l 667 667 l 667 806 m 667 639 l 806 639 l 806 500 l 667 500 l 667 639 m 667 472 l 806 472 l 806 333 l 667 333 l 667 472 m 667 306 l 806 306 l 806 167 l 667 167 l 667 306 m 500 806 l 639 806 l 639 667 l 500 667 l 500 806 m 500 139 l 639 139 l 639 0 l 500 0 l 500 139 m 333 639 l 472 639 l 472 500 l 333 500 l 333 639 m 333 139 l 472 139 l 472 0 l 333 0 l 333 139 m 167 472 l 306 472 l 306 333 l 167 333 l 167 472 m 167 139 l 306 139 l 306 0 l 167 0 l 167 139 m 0 806 l 139 806 l 139 667 l 0 667 l 0 806 m 0 639 l 139 639 l 139 500 l 0 500 l 0 639 m 0 472 l 139 472 l 139 333 l 0 333 l 0 472 m 0 306 l 139 306 l 139 167 l 0 167 l 0 306 z "},"1":{"ha":1000,"x_min":0,"x_max":806,"o":"m 333 1139 l 472 1139 l 472 1000 l 333 1000 l 333 1139 m 333 972 l 472 972 l 472 833 l 333 833 l 333 972 m 167 972 l 306 972 l 306 833 l 167 833 l 167 972 m 667 139 l 806 139 l 806 0 l 667 0 l 667 139 m 500 139 l 639 139 l 639 0 l 500 0 l 500 139 m 333 806 l 472 806 l 472 667 l 333 667 l 333 806 m 333 639 l 472 639 l 472 500 l 333 500 l 333 639 m 333 472 l 472 472 l 472 333 l 333 333 l 333 472 m 333 306 l 472 306 l 472 167 l 333 167 l 333 306 m 333 139 l 472 139 l 472 0 l 333 0 l 333 139 m 167 139 l 306 139 l 306 0 l 167 0 l 167 139 m 0 806 l 139 806 l 139 667 l 0 667 l 0 806 m 0 139 l 139 139 l 139 0 l 0 0 l 0 139 z "},"2":{"ha":1000,"x_min":0,"x_max":806,"o":"m 667 972 l 806 972 l 806 833 l 667 833 l 667 972 m 500 1139 l 639 1139 l 639 1000 l 500 1000 l 500 1139 m 333 1139 l 472 1139 l 472 1000 l 333 1000 l 333 1139 m 167 1139 l 306 1139 l 306 1000 l 167 1000 l 167 1139 m 0 972 l 139 972 l 139 833 l 0 833 l 0 972 m 667 806 l 806 806 l 806 667 l 667 667 l 667 806 m 667 139 l 806 139 l 806 0 l 667 0 l 667 139 m 500 639 l 639 639 l 639 500 l 500 500 l 500 639 m 500 139 l 639 139 l 639 0 l 500 0 l 500 139 m 333 472 l 472 472 l 472 333 l 333 333 l 333 472 m 333 139 l 472 139 l 472 0 l 333 0 l 333 139 m 167 306 l 306 306 l 306 167 l 167 167 l 167 306 m 167 139 l 306 139 l 306 0 l 167 0 l 167 139 m 0 139 l 139 139 l 139 0 l 0 0 l 0 139 z "},"3":{"ha":1000,"x_min":0,"x_max":806,"o":"m 667 972 l 806 972 l 806 833 l 667 833 l 667 972 m 500 1139 l 639 1139 l 639 1000 l 500 1000 l 500 1139 m 333 1139 l 472 1139 l 472 1000 l 333 1000 l 333 1139 m 167 1139 l 306 1139 l 306 1000 l 167 1000 l 167 1139 m 0 972 l 139 972 l 139 833 l 0 833 l 0 972 m 667 806 l 806 806 l 806 667 l 667 667 l 667 806 m 667 472 l 806 472 l 806 333 l 667 333 l 667 472 m 667 306 l 806 306 l 806 167 l 667 167 l 667 306 m 500 639 l 639 639 l 639 500 l 500 500 l 500 639 m 500 139 l 639 139 l 639 0 l 500 0 l 500 139 m 333 639 l 472 639 l 472 500 l 333 500 l 333 639 m 333 139 l 472 139 l 472 0 l 333 0 l 333 139 m 167 139 l 306 139 l 306 0 l 167 0 l 167 139 m 0 306 l 139 306 l 139 167 l 0 167 l 0 306 z "},"4":{"ha":1000,"x_min":0,"x_max":806,"o":"m 500 1139 l 639 1139 l 639 1000 l 500 1000 l 500 1139 m 500 972 l 639 972 l 639 833 l 500 833 l 500 972 m 333 972 l 472 972 l 472 833 l 333 833 l 333 972 m 667 472 l 806 472 l 806 333 l 667 333 l 667 472 m 500 806 l 639 806 l 639 667 l 500 667 l 500 806 m 500 639 l 639 639 l 639 500 l 500 500 l 500 639 m 500 472 l 639 472 l 639 333 l 500 333 l 500 472 m 500 306 l 639 306 l 639 167 l 500 167 l 500 306 m 500 139 l 639 139 l 639 0 l 500 0 l 500 139 m 333 472 l 472 472 l 472 333 l 333 333 l 333 472 m 167 806 l 306 806 l 306 667 l 167 667 l 167 806 m 167 472 l 306 472 l 306 333 l 167 333 l 167 472 m 0 639 l 139 639 l 139 500 l 0 500 l 0 639 m 0 472 l 139 472 l 139 333 l 0 333 l 0 472 z "},"5":{"ha":1000,"x_min":0,"x_max":806,"o":"m 667 1139 l 806 1139 l 806 1000 l 667 1000 l 667 1139 m 500 1139 l 639 1139 l 639 1000 l 500 1000 l 500 1139 m 333 1139 l 472 1139 l 472 1000 l 333 1000 l 333 1139 m 167 1139 l 306 1139 l 306 1000 l 167 1000 l 167 1139 m 0 1139 l 139 1139 l 139 1000 l 0 1000 l 0 1139 m 0 972 l 139 972 l 139 833 l 0 833 l 0 972 m 667 639 l 806 639 l 806 500 l 667 500 l 667 639 m 667 472 l 806 472 l 806 333 l 667 333 l 667 472 m 667 306 l 806 306 l 806 167 l 667 167 l 667 306 m 500 806 l 639 806 l 639 667 l 500 667 l 500 806 m 500 139 l 639 139 l 639 0 l 500 0 l 500 139 m 333 806 l 472 806 l 472 667 l 333 667 l 333 806 m 333 139 l 472 139 l 472 0 l 333 0 l 333 139 m 167 806 l 306 806 l 306 667 l 167 667 l 167 806 m 167 139 l 306 139 l 306 0 l 167 0 l 167 139 m 0 806 l 139 806 l 139 667 l 0 667 l 0 806 m 0 306 l 139 306 l 139 167 l 0 167 l 0 306 z "},"6":{"ha":1000,"x_min":0,"x_max":806,"o":"m 500 1139 l 639 1139 l 639 1000 l 500 1000 l 500 1139 m 333 1139 l 472 1139 l 472 1000 l 333 1000 l 333 1139 m 167 1139 l 306 1139 l 306 1000 l 167 1000 l 167 1139 m 0 972 l 139 972 l 139 833 l 0 833 l 0 972 m 667 639 l 806 639 l 806 500 l 667 500 l 667 639 m 667 472 l 806 472 l 806 333 l 667 333 l 667 472 m 667 306 l 806 306 l 806 167 l 667 167 l 667 306 m 500 806 l 639 806 l 639 667 l 500 667 l 500 806 m 500 139 l 639 139 l 639 0 l 500 0 l 500 139 m 333 806 l 472 806 l 472 667 l 333 667 l 333 806 m 333 139 l 472 139 l 472 0 l 333 0 l 333 139 m 167 806 l 306 806 l 306 667 l 167 667 l 167 806 m 167 139 l 306 139 l 306 0 l 167 0 l 167 139 m 0 806 l 139 806 l 139 667 l 0 667 l 0 806 m 0 639 l 139 639 l 139 500 l 0 500 l 0 639 m 0 472 l 139 472 l 139 333 l 0 333 l 0 472 m 0 306 l 139 306 l 139 167 l 0 167 l 0 306 z "},"7":{"ha":1000,"x_min":0,"x_max":806,"o":"m 667 1139 l 806 1139 l 806 1000 l 667 1000 l 667 1139 m 667 972 l 806 972 l 806 833 l 667 833 l 667 972 m 500 1139 l 639 1139 l 639 1000 l 500 1000 l 500 1139 m 333 1139 l 472 1139 l 472 1000 l 333 1000 l 333 1139 m 167 1139 l 306 1139 l 306 1000 l 167 1000 l 167 1139 m 0 1139 l 139 1139 l 139 1000 l 0 1000 l 0 1139 m 500 806 l 639 806 l 639 667 l 500 667 l 500 806 m 333 639 l 472 639 l 472 500 l 333 500 l 333 639 m 167 472 l 306 472 l 306 333 l 167 333 l 167 472 m 167 306 l 306 306 l 306 167 l 167 167 l 167 306 m 167 139 l 306 139 l 306 0 l 167 0 l 167 139 z "},"8":{"ha":1000,"x_min":0,"x_max":806,"o":"m 667 972 l 806 972 l 806 833 l 667 833 l 667 972 m 500 1139 l 639 1139 l 639 1000 l 500 1000 l 500 1139 m 333 1139 l 472 1139 l 472 1000 l 333 1000 l 333 1139 m 167 1139 l 306 1139 l 306 1000 l 167 1000 l 167 1139 m 0 972 l 139 972 l 139 833 l 0 833 l 0 972 m 667 806 l 806 806 l 806 667 l 667 667 l 667 806 m 667 472 l 806 472 l 806 333 l 667 333 l 667 472 m 667 306 l 806 306 l 806 167 l 667 167 l 667 306 m 500 639 l 639 639 l 639 500 l 500 500 l 500 639 m 500 139 l 639 139 l 639 0 l 500 0 l 500 139 m 333 639 l 472 639 l 472 500 l 333 500 l 333 639 m 333 139 l 472 139 l 472 0 l 333 0 l 333 139 m 167 639 l 306 639 l 306 500 l 167 500 l 167 639 m 167 139 l 306 139 l 306 0 l 167 0 l 167 139 m 0 806 l 139 806 l 139 667 l 0 667 l 0 806 m 0 472 l 139 472 l 139 333 l 0 333 l 0 472 m 0 306 l 139 306 l 139 167 l 0 167 l 0 306 z "},"9":{"ha":1000,"x_min":0,"x_max":806,"o":"m 667 972 l 806 972 l 806 833 l 667 833 l 667 972 m 500 1139 l 639 1139 l 639 1000 l 500 1000 l 500 1139 m 333 1139 l 472 1139 l 472 1000 l 333 1000 l 333 1139 m 167 1139 l 306 1139 l 306 1000 l 167 1000 l 167 1139 m 0 972 l 139 972 l 139 833 l 0 833 l 0 972 m 667 806 l 806 806 l 806 667 l 667 667 l 667 806 m 667 639 l 806 639 l 806 500 l 667 500 l 667 639 m 667 472 l 806 472 l 806 333 l 667 333 l 667 472 m 667 306 l 806 306 l 806 167 l 667 167 l 667 306 m 500 472 l 639 472 l 639 333 l 500 333 l 500 472 m 500 139 l 639 139 l 639 0 l 500 0 l 500 139 m 333 472 l 472 472 l 472 333 l 333 333 l 333 472 m 333 139 l 472 139 l 472 0 l 333 0 l 333 139 m 167 472 l 306 472 l 306 333 l 167 333 l 167 472 m 167 139 l 306 139 l 306 0 l 167 0 l 167 139 m 0 806 l 139 806 l 139 667 l 0 667 l 0 806 m 0 639 l 139 639 l 139 500 l 0 500 l 0 639 z "}," ":{"ha":500,"x_min":0,"x_max":306,"o":""},"A":{"ha":1000,"x_min":0,"x_max":806,"o":"m 667 972 l 806 972 l 806 833 l 667 833 l 667 972 m 500 1139 l 639 1139 l 639 1000 l 500 1000 l 500 1139 m 333 1139 l 472 1139 l 472 1000 l 333 1000 l 333 1139 m 167 1139 l 306 1139 l 306 1000 l 167 1000 l 167 1139 m 0 972 l 139 972 l 139 833 l 0 833 l 0 972 m 667 806 l 806 806 l 806 667 l 667 667 l 667 806 m 667 639 l 806 639 l 806 500 l 667 500 l 667 639 m 667 472 l 806 472 l 806 333 l 667 333 l 667 472 m 667 306 l 806 306 l 806 167 l 667 167 l 667 306 m 667 139 l 806 139 l 806 0 l 667 0 l 667 139 m 500 639 l 639 639 l 639 500 l 500 500 l 500 639 m 333 639 l 472 639 l 472 500 l 333 500 l 333 639 m 167 639 l 306 639 l 306 500 l 167 500 l 167 639 m 0 806 l 139 806 l 139 667 l 0 667 l 0 806 m 0 639 l 139 639 l 139 500 l 0 500 l 0 639 m 0 472 l 139 472 l 139 333 l 0 333 l 0 472 m 0 306 l 139 306 l 139 167 l 0 167 l 0 306 m 0 139 l 139 139 l 139 0 l 0 0 l 0 139 z "},"B":{"ha":1000,"x_min":0,"x_max":806,"o":"m 667 972 l 806 972 l 806 833 l 667 833 l 667 972 m 500 1139 l 639 1139 l 639 1000 l 500 1000 l 500 1139 m 333 1139 l 472 1139 l 472 1000 l 333 1000 l 333 1139 m 167 1139 l 306 1139 l 306 1000 l 167 1000 l 167 1139 m 0 1139 l 139 1139 l 139 1000 l 0 1000 l 0 1139 m 0 972 l 139 972 l 139 833 l 0 833 l 0 972 m 667 806 l 806 806 l 806 667 l 667 667 l 667 806 m 667 472 l 806 472 l 806 333 l 667 333 l 667 472 m 667 306 l 806 306 l 806 167 l 667 167 l 667 306 m 500 639 l 639 639 l 639 500 l 500 500 l 500 639 m 500 139 l 639 139 l 639 0 l 500 0 l 500 139 m 333 639 l 472 639 l 472 500 l 333 500 l 333 639 m 333 139 l 472 139 l 472 0 l 333 0 l 333 139 m 167 639 l 306 639 l 306 500 l 167 500 l 167 639 m 167 139 l 306 139 l 306 0 l 167 0 l 167 139 m 0 806 l 139 806 l 139 667 l 0 667 l 0 806 m 0 639 l 139 639 l 139 500 l 0 500 l 0 639 m 0 472 l 139 472 l 139 333 l 0 333 l 0 472 m 0 306 l 139 306 l 139 167 l 0 167 l 0 306 m 0 139 l 139 139 l 139 0 l 0 0 l 0 139 z "},"C":{"ha":1000,"x_min":0,"x_max":806,"o":"m 667 972 l 806 972 l 806 833 l 667 833 l 667 972 m 500 1139 l 639 1139 l 639 1000 l 500 1000 l 500 1139 m 333 1139 l 472 1139 l 472 1000 l 333 1000 l 333 1139 m 167 1139 l 306 1139 l 306 1000 l 167 1000 l 167 1139 m 0 972 l 139 972 l 139 833 l 0 833 l 0 972 m 667 306 l 806 306 l 806 167 l 667 167 l 667 306 m 500 139 l 639 139 l 639 0 l 500 0 l 500 139 m 333 139 l 472 139 l 472 0 l 333 0 l 333 139 m 167 139 l 306 139 l 306 0 l 167 0 l 167 139 m 0 806 l 139 806 l 139 667 l 0 667 l 0 806 m 0 639 l 139 639 l 139 500 l 0 500 l 0 639 m 0 472 l 139 472 l 139 333 l 0 333 l 0 472 m 0 306 l 139 306 l 139 167 l 0 167 l 0 306 z "},"D":{"ha":1000,"x_min":0,"x_max":806,"o":"m 667 972 l 806 972 l 806 833 l 667 833 l 667 972 m 500 1139 l 639 1139 l 639 1000 l 500 1000 l 500 1139 m 333 1139 l 472 1139 l 472 1000 l 333 1000 l 333 1139 m 167 1139 l 306 1139 l 306 1000 l 167 1000 l 167 1139 m 0 1139 l 139 1139 l 139 1000 l 0 1000 l 0 1139 m 0 972 l 139 972 l 139 833 l 0 833 l 0 972 m 667 806 l 806 806 l 806 667 l 667 667 l 667 806 m 667 639 l 806 639 l 806 500 l 667 500 l 667 639 m 667 472 l 806 472 l 806 333 l 667 333 l 667 472 m 667 306 l 806 306 l 806 167 l 667 167 l 667 306 m 500 139 l 639 139 l 639 0 l 500 0 l 500 139 m 333 139 l 472 139 l 472 0 l 333 0 l 333 139 m 167 139 l 306 139 l 306 0 l 167 0 l 167 139 m 0 806 l 139 806 l 139 667 l 0 667 l 0 806 m 0 639 l 139 639 l 139 500 l 0 500 l 0 639 m 0 472 l 139 472 l 139 333 l 0 333 l 0 472 m 0 306 l 139 306 l 139 167 l 0 167 l 0 306 m 0 139 l 139 139 l 139 0 l 0 0 l 0 139 z "},"E":{"ha":1000,"x_min":0,"x_max":806,"o":"m 667 1139 l 806 1139 l 806 1000 l 667 1000 l 667 1139 m 500 1139 l 639 1139 l 639 1000 l 500 1000 l 500 1139 m 333 1139 l 472 1139 l 472 1000 l 333 1000 l 333 1139 m 167 1139 l 306 1139 l 306 1000 l 167 1000 l 167 1139 m 0 1139 l 139 1139 l 139 1000 l 0 1000 l 0 1139 m 0 972 l 139 972 l 139 833 l 0 833 l 0 972 m 667 139 l 806 139 l 806 0 l 667 0 l 667 139 m 500 639 l 639 639 l 639 500 l 500 500 l 500 639 m 500 139 l 639 139 l 639 0 l 500 0 l 500 139 m 333 639 l 472 639 l 472 500 l 333 500 l 333 639 m 333 139 l 472 139 l 472 0 l 333 0 l 333 139 m 167 639 l 306 639 l 306 500 l 167 500 l 167 639 m 167 139 l 306 139 l 306 0 l 167 0 l 167 139 m 0 806 l 139 806 l 139 667 l 0 667 l 0 806 m 0 639 l 139 639 l 139 500 l 0 500 l 0 639 m 0 472 l 139 472 l 139 333 l 0 333 l 0 472 m 0 306 l 139 306 l 139 167 l 0 167 l 0 306 m 0 139 l 139 139 l 139 0 l 0 0 l 0 139 z "},"F":{"ha":1000,"x_min":0,"x_max":806,"o":"m 667 1139 l 806 1139 l 806 1000 l 667 1000 l 667 1139 m 500 1139 l 639 1139 l 639 1000 l 500 1000 l 500 1139 m 333 1139 l 472 1139 l 472 1000 l 333 1000 l 333 1139 m 167 1139 l 306 1139 l 306 1000 l 167 1000 l 167 1139 m 0 1139 l 139 1139 l 139 1000 l 0 1000 l 0 1139 m 0 972 l 139 972 l 139 833 l 0 833 l 0 972 m 500 639 l 639 639 l 639 500 l 500 500 l 500 639 m 333 639 l 472 639 l 472 500 l 333 500 l 333 639 m 167 639 l 306 639 l 306 500 l 167 500 l 167 639 m 0 806 l 139 806 l 139 667 l 0 667 l 0 806 m 0 639 l 139 639 l 139 500 l 0 500 l 0 639 m 0 472 l 139 472 l 139 333 l 0 333 l 0 472 m 0 306 l 139 306 l 139 167 l 0 167 l 0 306 m 0 139 l 139 139 l 139 0 l 0 0 l 0 139 z "},"G":{"ha":1000,"x_min":0,"x_max":806,"o":"m 667 972 l 806 972 l 806 833 l 667 833 l 667 972 m 500 1139 l 639 1139 l 639 1000 l 500 1000 l 500 1139 m 333 1139 l 472 1139 l 472 1000 l 333 1000 l 333 1139 m 167 1139 l 306 1139 l 306 1000 l 167 1000 l 167 1139 m 0 972 l 139 972 l 139 833 l 0 833 l 0 972 m 667 472 l 806 472 l 806 333 l 667 333 l 667 472 m 667 306 l 806 306 l 806 167 l 667 167 l 667 306 m 500 472 l 639 472 l 639 333 l 500 333 l 500 472 m 500 139 l 639 139 l 639 0 l 500 0 l 500 139 m 333 139 l 472 139 l 472 0 l 333 0 l 333 139 m 167 139 l 306 139 l 306 0 l 167 0 l 167 139 m 0 806 l 139 806 l 139 667 l 0 667 l 0 806 m 0 639 l 139 639 l 139 500 l 0 500 l 0 639 m 0 472 l 139 472 l 139 333 l 0 333 l 0 472 m 0 306 l 139 306 l 139 167 l 0 167 l 0 306 z "},"H":{"ha":1000,"x_min":0,"x_max":806,"o":"m 667 1139 l 806 1139 l 806 1000 l 667 1000 l 667 1139 m 667 972 l 806 972 l 806 833 l 667 833 l 667 972 m 0 1139 l 139 1139 l 139 1000 l 0 1000 l 0 1139 m 0 972 l 139 972 l 139 833 l 0 833 l 0 972 m 667 806 l 806 806 l 806 667 l 667 667 l 667 806 m 667 639 l 806 639 l 806 500 l 667 500 l 667 639 m 667 472 l 806 472 l 806 333 l 667 333 l 667 472 m 667 306 l 806 306 l 806 167 l 667 167 l 667 306 m 667 139 l 806 139 l 806 0 l 667 0 l 667 139 m 500 639 l 639 639 l 639 500 l 500 500 l 500 639 m 333 639 l 472 639 l 472 500 l 333 500 l 333 639 m 167 639 l 306 639 l 306 500 l 167 500 l 167 639 m 0 806 l 139 806 l 139 667 l 0 667 l 0 806 m 0 639 l 139 639 l 139 500 l 0 500 l 0 639 m 0 472 l 139 472 l 139 333 l 0 333 l 0 472 m 0 306 l 139 306 l 139 167 l 0 167 l 0 306 m 0 139 l 139 139 l 139 0 l 0 0 l 0 139 z "},"I":{"ha":667,"x_min":0,"x_max":472,"o":"m 333 1139 l 472 1139 l 472 1000 l 333 1000 l 333 1139 m 167 1139 l 306 1139 l 306 1000 l 167 1000 l 167 1139 m 167 972 l 306 972 l 306 833 l 167 833 l 167 972 m 0 1139 l 139 1139 l 139 1000 l 0 1000 l 0 1139 m 333 139 l 472 139 l 472 0 l 333 0 l 333 139 m 167 806 l 306 806 l 306 667 l 167 667 l 167 806 m 167 639 l 306 639 l 306 500 l 167 500 l 167 639 m 167 472 l 306 472 l 306 333 l 167 333 l 167 472 m 167 306 l 306 306 l 306 167 l 167 167 l 167 306 m 167 139 l 306 139 l 306 0 l 167 0 l 167 139 m 0 139 l 139 139 l 139 0 l 0 0 l 0 139 z "},"J":{"ha":1000,"x_min":0,"x_max":806,"o":"m 667 1139 l 806 1139 l 806 1000 l 667 1000 l 667 1139 m 667 972 l 806 972 l 806 833 l 667 833 l 667 972 m 500 1139 l 639 1139 l 639 1000 l 500 1000 l 500 1139 m 333 1139 l 472 1139 l 472 1000 l 333 1000 l 333 1139 m 167 1139 l 306 1139 l 306 1000 l 167 1000 l 167 1139 m 667 806 l 806 806 l 806 667 l 667 667 l 667 806 m 667 639 l 806 639 l 806 500 l 667 500 l 667 639 m 667 472 l 806 472 l 806 333 l 667 333 l 667 472 m 667 306 l 806 306 l 806 167 l 667 167 l 667 306 m 500 139 l 639 139 l 639 0 l 500 0 l 500 139 m 333 139 l 472 139 l 472 0 l 333 0 l 333 139 m 167 139 l 306 139 l 306 0 l 167 0 l 167 139 m 0 306 l 139 306 l 139 167 l 0 167 l 0 306 z "},"K":{"ha":1000,"x_min":0,"x_max":806,"o":"m 667 1139 l 806 1139 l 806 1000 l 667 1000 l 667 1139 m 500 972 l 639 972 l 639 833 l 500 833 l 500 972 m 0 1139 l 139 1139 l 139 1000 l 0 1000 l 0 1139 m 0 972 l 139 972 l 139 833 l 0 833 l 0 972 m 667 139 l 806 139 l 806 0 l 667 0 l 667 139 m 500 306 l 639 306 l 639 167 l 500 167 l 500 306 m 333 806 l 472 806 l 472 667 l 333 667 l 333 806 m 333 472 l 472 472 l 472 333 l 333 333 l 333 472 m 167 639 l 306 639 l 306 500 l 167 500 l 167 639 m 0 806 l 139 806 l 139 667 l 0 667 l 0 806 m 0 639 l 139 639 l 139 500 l 0 500 l 0 639 m 0 472 l 139 472 l 139 333 l 0 333 l 0 472 m 0 306 l 139 306 l 139 167 l 0 167 l 0 306 m 0 139 l 139 139 l 139 0 l 0 0 l 0 139 z "},"L":{"ha":1000,"x_min":0,"x_max":806,"o":"m 0 1139 l 139 1139 l 139 1000 l 0 1000 l 0 1139 m 0 972 l 139 972 l 139 833 l 0 833 l 0 972 m 667 139 l 806 139 l 806 0 l 667 0 l 667 139 m 500 139 l 639 139 l 639 0 l 500 0 l 500 139 m 333 139 l 472 139 l 472 0 l 333 0 l 333 139 m 167 139 l 306 139 l 306 0 l 167 0 l 167 139 m 0 806 l 139 806 l 139 667 l 0 667 l 0 806 m 0 639 l 139 639 l 139 500 l 0 500 l 0 639 m 0 472 l 139 472 l 139 333 l 0 333 l 0 472 m 0 306 l 139 306 l 139 167 l 0 167 l 0 306 m 0 139 l 139 139 l 139 0 l 0 0 l 0 139 z "},"M":{"ha":1000,"x_min":0,"x_max":806,"o":"m 667 1139 l 806 1139 l 806 1000 l 667 1000 l 667 1139 m 667 972 l 806 972 l 806 833 l 667 833 l 667 972 m 500 972 l 639 972 l 639 833 l 500 833 l 500 972 m 167 972 l 306 972 l 306 833 l 167 833 l 167 972 m 0 1139 l 139 1139 l 139 1000 l 0 1000 l 0 1139 m 0 972 l 139 972 l 139 833 l 0 833 l 0 972 m 667 806 l 806 806 l 806 667 l 667 667 l 667 806 m 667 639 l 806 639 l 806 500 l 667 500 l 667 639 m 667 472 l 806 472 l 806 333 l 667 333 l 667 472 m 667 306 l 806 306 l 806 167 l 667 167 l 667 306 m 667 139 l 806 139 l 806 0 l 667 0 l 667 139 m 333 806 l 472 806 l 472 667 l 333 667 l 333 806 m 333 639 l 472 639 l 472 500 l 333 500 l 333 639 m 0 806 l 139 806 l 139 667 l 0 667 l 0 806 m 0 639 l 139 639 l 139 500 l 0 500 l 0 639 m 0 472 l 139 472 l 139 333 l 0 333 l 0 472 m 0 306 l 139 306 l 139 167 l 0 167 l 0 306 m 0 139 l 139 139 l 139 0 l 0 0 l 0 139 z "},"N":{"ha":1000,"x_min":0,"x_max":806,"o":"m 667 1139 l 806 1139 l 806 1000 l 667 1000 l 667 1139 m 667 972 l 806 972 l 806 833 l 667 833 l 667 972 m 0 1139 l 139 1139 l 139 1000 l 0 1000 l 0 1139 m 0 972 l 139 972 l 139 833 l 0 833 l 0 972 m 667 806 l 806 806 l 806 667 l 667 667 l 667 806 m 667 639 l 806 639 l 806 500 l 667 500 l 667 639 m 667 472 l 806 472 l 806 333 l 667 333 l 667 472 m 667 306 l 806 306 l 806 167 l 667 167 l 667 306 m 667 139 l 806 139 l 806 0 l 667 0 l 667 139 m 500 472 l 639 472 l 639 333 l 500 333 l 500 472 m 333 639 l 472 639 l 472 500 l 333 500 l 333 639 m 167 806 l 306 806 l 306 667 l 167 667 l 167 806 m 0 806 l 139 806 l 139 667 l 0 667 l 0 806 m 0 639 l 139 639 l 139 500 l 0 500 l 0 639 m 0 472 l 139 472 l 139 333 l 0 333 l 0 472 m 0 306 l 139 306 l 139 167 l 0 167 l 0 306 m 0 139 l 139 139 l 139 0 l 0 0 l 0 139 z "},"O":{"ha":1000,"x_min":0,"x_max":806,"o":"m 667 972 l 806 972 l 806 833 l 667 833 l 667 972 m 500 1139 l 639 1139 l 639 1000 l 500 1000 l 500 1139 m 333 1139 l 472 1139 l 472 1000 l 333 1000 l 333 1139 m 167 1139 l 306 1139 l 306 1000 l 167 1000 l 167 1139 m 0 972 l 139 972 l 139 833 l 0 833 l 0 972 m 667 806 l 806 806 l 806 667 l 667 667 l 667 806 m 667 639 l 806 639 l 806 500 l 667 500 l 667 639 m 667 472 l 806 472 l 806 333 l 667 333 l 667 472 m 667 306 l 806 306 l 806 167 l 667 167 l 667 306 m 500 139 l 639 139 l 639 0 l 500 0 l 500 139 m 333 139 l 472 139 l 472 0 l 333 0 l 333 139 m 167 139 l 306 139 l 306 0 l 167 0 l 167 139 m 0 806 l 139 806 l 139 667 l 0 667 l 0 806 m 0 639 l 139 639 l 139 500 l 0 500 l 0 639 m 0 472 l 139 472 l 139 333 l 0 333 l 0 472 m 0 306 l 139 306 l 139 167 l 0 167 l 0 306 z "},"P":{"ha":1000,"x_min":0,"x_max":806,"o":"m 667 972 l 806 972 l 806 833 l 667 833 l 667 972 m 500 1139 l 639 1139 l 639 1000 l 500 1000 l 500 1139 m 333 1139 l 472 1139 l 472 1000 l 333 1000 l 333 1139 m 167 1139 l 306 1139 l 306 1000 l 167 1000 l 167 1139 m 0 1139 l 139 1139 l 139 1000 l 0 1000 l 0 1139 m 0 972 l 139 972 l 139 833 l 0 833 l 0 972 m 667 806 l 806 806 l 806 667 l 667 667 l 667 806 m 500 639 l 639 639 l 639 500 l 500 500 l 500 639 m 333 639 l 472 639 l 472 500 l 333 500 l 333 639 m 167 639 l 306 639 l 306 500 l 167 500 l 167 639 m 0 806 l 139 806 l 139 667 l 0 667 l 0 806 m 0 639 l 139 639 l 139 500 l 0 500 l 0 639 m 0 472 l 139 472 l 139 333 l 0 333 l 0 472 m 0 306 l 139 306 l 139 167 l 0 167 l 0 306 m 0 139 l 139 139 l 139 0 l 0 0 l 0 139 z "},"Q":{"ha":1000,"x_min":0,"x_max":806,"o":"m 667 972 l 806 972 l 806 833 l 667 833 l 667 972 m 500 1139 l 639 1139 l 639 1000 l 500 1000 l 500 1139 m 333 1139 l 472 1139 l 472 1000 l 333 1000 l 333 1139 m 167 1139 l 306 1139 l 306 1000 l 167 1000 l 167 1139 m 0 972 l 139 972 l 139 833 l 0 833 l 0 972 m 667 806 l 806 806 l 806 667 l 667 667 l 667 806 m 667 639 l 806 639 l 806 500 l 667 500 l 667 639 m 667 472 l 806 472 l 806 333 l 667 333 l 667 472 m 667 306 l 806 306 l 806 167 l 667 167 l 667 306 m 667 139 l 806 139 l 806 0 l 667 0 l 667 139 m 500 306 l 639 306 l 639 167 l 500 167 l 500 306 m 500 139 l 639 139 l 639 0 l 500 0 l 500 139 m 333 139 l 472 139 l 472 0 l 333 0 l 333 139 m 167 139 l 306 139 l 306 0 l 167 0 l 167 139 m 0 806 l 139 806 l 139 667 l 0 667 l 0 806 m 0 639 l 139 639 l 139 500 l 0 500 l 0 639 m 0 472 l 139 472 l 139 333 l 0 333 l 0 472 m 0 306 l 139 306 l 139 167 l 0 167 l 0 306 z "},"R":{"ha":1000,"x_min":0,"x_max":806,"o":"m 667 972 l 806 972 l 806 833 l 667 833 l 667 972 m 500 1139 l 639 1139 l 639 1000 l 500 1000 l 500 1139 m 333 1139 l 472 1139 l 472 1000 l 333 1000 l 333 1139 m 167 1139 l 306 1139 l 306 1000 l 167 1000 l 167 1139 m 0 1139 l 139 1139 l 139 1000 l 0 1000 l 0 1139 m 0 972 l 139 972 l 139 833 l 0 833 l 0 972 m 667 806 l 806 806 l 806 667 l 667 667 l 667 806 m 667 139 l 806 139 l 806 0 l 667 0 l 667 139 m 500 639 l 639 639 l 639 500 l 500 500 l 500 639 m 500 306 l 639 306 l 639 167 l 500 167 l 500 306 m 333 639 l 472 639 l 472 500 l 333 500 l 333 639 m 333 472 l 472 472 l 472 333 l 333 333 l 333 472 m 167 639 l 306 639 l 306 500 l 167 500 l 167 639 m 0 806 l 139 806 l 139 667 l 0 667 l 0 806 m 0 639 l 139 639 l 139 500 l 0 500 l 0 639 m 0 472 l 139 472 l 139 333 l 0 333 l 0 472 m 0 306 l 139 306 l 139 167 l 0 167 l 0 306 m 0 139 l 139 139 l 139 0 l 0 0 l 0 139 z "},"S":{"ha":1000,"x_min":0,"x_max":806,"o":"m 667 972 l 806 972 l 806 833 l 667 833 l 667 972 m 500 1139 l 639 1139 l 639 1000 l 500 1000 l 500 1139 m 333 1139 l 472 1139 l 472 1000 l 333 1000 l 333 1139 m 167 1139 l 306 1139 l 306 1000 l 167 1000 l 167 1139 m 0 972 l 139 972 l 139 833 l 0 833 l 0 972 m 667 472 l 806 472 l 806 333 l 667 333 l 667 472 m 667 306 l 806 306 l 806 167 l 667 167 l 667 306 m 500 639 l 639 639 l 639 500 l 500 500 l 500 639 m 500 139 l 639 139 l 639 0 l 500 0 l 500 139 m 333 639 l 472 639 l 472 500 l 333 500 l 333 639 m 333 139 l 472 139 l 472 0 l 333 0 l 333 139 m 167 639 l 306 639 l 306 500 l 167 500 l 167 639 m 167 139 l 306 139 l 306 0 l 167 0 l 167 139 m 0 806 l 139 806 l 139 667 l 0 667 l 0 806 m 0 306 l 139 306 l 139 167 l 0 167 l 0 306 z "},"T":{"ha":1000,"x_min":0,"x_max":806,"o":"m 667 1139 l 806 1139 l 806 1000 l 667 1000 l 667 1139 m 500 1139 l 639 1139 l 639 1000 l 500 1000 l 500 1139 m 333 1139 l 472 1139 l 472 1000 l 333 1000 l 333 1139 m 333 972 l 472 972 l 472 833 l 333 833 l 333 972 m 167 1139 l 306 1139 l 306 1000 l 167 1000 l 167 1139 m 0 1139 l 139 1139 l 139 1000 l 0 1000 l 0 1139 m 333 806 l 472 806 l 472 667 l 333 667 l 333 806 m 333 639 l 472 639 l 472 500 l 333 500 l 333 639 m 333 472 l 472 472 l 472 333 l 333 333 l 333 472 m 333 306 l 472 306 l 472 167 l 333 167 l 333 306 m 333 139 l 472 139 l 472 0 l 333 0 l 333 139 z "},"U":{"ha":1000,"x_min":0,"x_max":806,"o":"m 667 1139 l 806 1139 l 806 1000 l 667 1000 l 667 1139 m 667 972 l 806 972 l 806 833 l 667 833 l 667 972 m 0 1139 l 139 1139 l 139 1000 l 0 1000 l 0 1139 m 0 972 l 139 972 l 139 833 l 0 833 l 0 972 m 667 806 l 806 806 l 806 667 l 667 667 l 667 806 m 667 639 l 806 639 l 806 500 l 667 500 l 667 639 m 667 472 l 806 472 l 806 333 l 667 333 l 667 472 m 667 306 l 806 306 l 806 167 l 667 167 l 667 306 m 500 139 l 639 139 l 639 0 l 500 0 l 500 139 m 333 139 l 472 139 l 472 0 l 333 0 l 333 139 m 167 139 l 306 139 l 306 0 l 167 0 l 167 139 m 0 806 l 139 806 l 139 667 l 0 667 l 0 806 m 0 639 l 139 639 l 139 500 l 0 500 l 0 639 m 0 472 l 139 472 l 139 333 l 0 333 l 0 472 m 0 306 l 139 306 l 139 167 l 0 167 l 0 306 z "},"V":{"ha":1000,"x_min":0,"x_max":806,"o":"m 667 1139 l 806 1139 l 806 1000 l 667 1000 l 667 1139 m 667 972 l 806 972 l 806 833 l 667 833 l 667 972 m 0 1139 l 139 1139 l 139 1000 l 0 1000 l 0 1139 m 0 972 l 139 972 l 139 833 l 0 833 l 0 972 m 667 806 l 806 806 l 806 667 l 667 667 l 667 806 m 667 639 l 806 639 l 806 500 l 667 500 l 667 639 m 667 472 l 806 472 l 806 333 l 667 333 l 667 472 m 500 306 l 639 306 l 639 167 l 500 167 l 500 306 m 333 139 l 472 139 l 472 0 l 333 0 l 333 139 m 167 306 l 306 306 l 306 167 l 167 167 l 167 306 m 0 806 l 139 806 l 139 667 l 0 667 l 0 806 m 0 639 l 139 639 l 139 500 l 0 500 l 0 639 m 0 472 l 139 472 l 139 333 l 0 333 l 0 472 z "},"W":{"ha":1000,"x_min":0,"x_max":806,"o":"m 667 1139 l 806 1139 l 806 1000 l 667 1000 l 667 1139 m 667 972 l 806 972 l 806 833 l 667 833 l 667 972 m 0 1139 l 139 1139 l 139 1000 l 0 1000 l 0 1139 m 0 972 l 139 972 l 139 833 l 0 833 l 0 972 m 667 806 l 806 806 l 806 667 l 667 667 l 667 806 m 667 639 l 806 639 l 806 500 l 667 500 l 667 639 m 667 472 l 806 472 l 806 333 l 667 333 l 667 472 m 667 306 l 806 306 l 806 167 l 667 167 l 667 306 m 500 139 l 639 139 l 639 0 l 500 0 l 500 139 m 333 472 l 472 472 l 472 333 l 333 333 l 333 472 m 333 306 l 472 306 l 472 167 l 333 167 l 333 306 m 167 139 l 306 139 l 306 0 l 167 0 l 167 139 m 0 806 l 139 806 l 139 667 l 0 667 l 0 806 m 0 639 l 139 639 l 139 500 l 0 500 l 0 639 m 0 472 l 139 472 l 139 333 l 0 333 l 0 472 m 0 306 l 139 306 l 139 167 l 0 167 l 0 306 z "},"X":{"ha":1000,"x_min":0,"x_max":806,"o":"m 667 1139 l 806 1139 l 806 1000 l 667 1000 l 667 1139 m 667 972 l 806 972 l 806 833 l 667 833 l 667 972 m 0 1139 l 139 1139 l 139 1000 l 0 1000 l 0 1139 m 0 972 l 139 972 l 139 833 l 0 833 l 0 972 m 667 306 l 806 306 l 806 167 l 667 167 l 667 306 m 667 139 l 806 139 l 806 0 l 667 0 l 667 139 m 500 806 l 639 806 l 639 667 l 500 667 l 500 806 m 500 472 l 639 472 l 639 333 l 500 333 l 500 472 m 333 639 l 472 639 l 472 500 l 333 500 l 333 639 m 167 806 l 306 806 l 306 667 l 167 667 l 167 806 m 167 472 l 306 472 l 306 333 l 167 333 l 167 472 m 0 306 l 139 306 l 139 167 l 0 167 l 0 306 m 0 139 l 139 139 l 139 0 l 0 0 l 0 139 z "},"Y":{"ha":1000,"x_min":0,"x_max":806,"o":"m 667 1139 l 806 1139 l 806 1000 l 667 1000 l 667 1139 m 667 972 l 806 972 l 806 833 l 667 833 l 667 972 m 0 1139 l 139 1139 l 139 1000 l 0 1000 l 0 1139 m 0 972 l 139 972 l 139 833 l 0 833 l 0 972 m 500 806 l 639 806 l 639 667 l 500 667 l 500 806 m 333 639 l 472 639 l 472 500 l 333 500 l 333 639 m 333 472 l 472 472 l 472 333 l 333 333 l 333 472 m 333 306 l 472 306 l 472 167 l 333 167 l 333 306 m 333 139 l 472 139 l 472 0 l 333 0 l 333 139 m 167 806 l 306 806 l 306 667 l 167 667 l 167 806 z "},"Z":{"ha":1000,"x_min":0,"x_max":806,"o":"m 667 1139 l 806 1139 l 806 1000 l 667 1000 l 667 1139 m 667 972 l 806 972 l 806 833 l 667 833 l 667 972 m 500 1139 l 639 1139 l 639 1000 l 500 1000 l 500 1139 m 333 1139 l 472 1139 l 472 1000 l 333 1000 l 333 1139 m 167 1139 l 306 1139 l 306 1000 l 167 1000 l 167 1139 m 0 1139 l 139 1139 l 139 1000 l 0 1000 l 0 1139 m 667 139 l 806 139 l 806 0 l 667 0 l 667 139 m 500 806 l 639 806 l 639 667 l 500 667 l 500 806 m 500 139 l 639 139 l 639 0 l 500 0 l 500 139 m 333 639 l 472 639 l 472 500 l 333 500 l 333 639 m 333 139 l 472 139 l 472 0 l 333 0 l 333 139 m 167 472 l 306 472 l 306 333 l 167 333 l 167 472 m 167 139 l 306 139 l 306 0 l 167 0 l 167 139 m 0 306 l 139 306 l 139 167 l 0 167 l 0 306 m 0 139 l 139 139 l 139 0 l 0 0 l 0 139 z "},"a":{"ha":833,"x_min":0,"x_max":639,"o":"m 500 639 l 639 639 l 639 500 l 500 500 l 500 639 m 500 472 l 639 472 l 639 333 l 500 333 l 500 472 m 500 306 l 639 306 l 639 167 l 500 167 l 500 306 m 500 139 l 639 139 l 639 0 l 500 0 l 500 139 m 333 806 l 472 806 l 472 667 l 333 667 l 333 806 m 333 472 l 472 472 l 472 333 l 333 333 l 333 472 m 333 139 l 472 139 l 472 0 l 333 0 l 333 139 m 167 806 l 306 806 l 306 667 l 167 667 l 167 806 m 167 472 l 306 472 l 306 333 l 167 333 l 167 472 m 167 139 l 306 139 l 306 0 l 167 0 l 167 139 m 0 806 l 139 806 l 139 667 l 0 667 l 0 806 m 0 472 l 139 472 l 139 333 l 0 333 l 0 472 m 0 306 l 139 306 l 139 167 l 0 167 l 0 306 m 0 139 l 139 139 l 139 0 l 0 0 l 0 139 z "},"b":{"ha":833,"x_min":0,"x_max":639,"o":"m 0 1139 l 139 1139 l 139 1000 l 0 1000 l 0 1139 m 0 972 l 139 972 l 139 833 l 0 833 l 0 972 m 500 639 l 639 639 l 639 500 l 500 500 l 500 639 m 500 472 l 639 472 l 639 333 l 500 333 l 500 472 m 500 306 l 639 306 l 639 167 l 500 167 l 500 306 m 333 806 l 472 806 l 472 667 l 333 667 l 333 806 m 333 139 l 472 139 l 472 0 l 333 0 l 333 139 m 167 806 l 306 806 l 306 667 l 167 667 l 167 806 m 167 139 l 306 139 l 306 0 l 167 0 l 167 139 m 0 806 l 139 806 l 139 667 l 0 667 l 0 806 m 0 639 l 139 639 l 139 500 l 0 500 l 0 639 m 0 472 l 139 472 l 139 333 l 0 333 l 0 472 m 0 306 l 139 306 l 139 167 l 0 167 l 0 306 m 0 139 l 139 139 l 139 0 l 0 0 l 0 139 z "},"c":{"ha":833,"x_min":0,"x_max":639,"o":"m 500 639 l 639 639 l 639 500 l 500 500 l 500 639 m 500 306 l 639 306 l 639 167 l 500 167 l 500 306 m 333 806 l 472 806 l 472 667 l 333 667 l 333 806 m 333 139 l 472 139 l 472 0 l 333 0 l 333 139 m 167 806 l 306 806 l 306 667 l 167 667 l 167 806 m 167 139 l 306 139 l 306 0 l 167 0 l 167 139 m 0 639 l 139 639 l 139 500 l 0 500 l 0 639 m 0 472 l 139 472 l 139 333 l 0 333 l 0 472 m 0 306 l 139 306 l 139 167 l 0 167 l 0 306 z "},"d":{"ha":833,"x_min":0,"x_max":639,"o":"m 500 1139 l 639 1139 l 639 1000 l 500 1000 l 500 1139 m 500 972 l 639 972 l 639 833 l 500 833 l 500 972 m 500 806 l 639 806 l 639 667 l 500 667 l 500 806 m 500 639 l 639 639 l 639 500 l 500 500 l 500 639 m 500 472 l 639 472 l 639 333 l 500 333 l 500 472 m 500 306 l 639 306 l 639 167 l 500 167 l 500 306 m 500 139 l 639 139 l 639 0 l 500 0 l 500 139 m 333 806 l 472 806 l 472 667 l 333 667 l 333 806 m 333 139 l 472 139 l 472 0 l 333 0 l 333 139 m 167 806 l 306 806 l 306 667 l 167 667 l 167 806 m 167 139 l 306 139 l 306 0 l 167 0 l 167 139 m 0 639 l 139 639 l 139 500 l 0 500 l 0 639 m 0 472 l 139 472 l 139 333 l 0 333 l 0 472 m 0 306 l 139 306 l 139 167 l 0 167 l 0 306 z "},"e":{"ha":833,"x_min":0,"x_max":639,"o":"m 500 639 l 639 639 l 639 500 l 500 500 l 500 639 m 500 472 l 639 472 l 639 333 l 500 333 l 500 472 m 500 139 l 639 139 l 639 0 l 500 0 l 500 139 m 333 806 l 472 806 l 472 667 l 333 667 l 333 806 m 333 472 l 472 472 l 472 333 l 333 333 l 333 472 m 333 139 l 472 139 l 472 0 l 333 0 l 333 139 m 167 806 l 306 806 l 306 667 l 167 667 l 167 806 m 167 472 l 306 472 l 306 333 l 167 333 l 167 472 m 167 139 l 306 139 l 306 0 l 167 0 l 167 139 m 0 639 l 139 639 l 139 500 l 0 500 l 0 639 m 0 472 l 139 472 l 139 333 l 0 333 l 0 472 m 0 306 l 139 306 l 139 167 l 0 167 l 0 306 z "},"f":{"ha":833,"x_min":0,"x_max":639,"o":"m 500 1139 l 639 1139 l 639 1000 l 500 1000 l 500 1139 m 333 1139 l 472 1139 l 472 1000 l 333 1000 l 333 1139 m 167 972 l 306 972 l 306 833 l 167 833 l 167 972 m 500 806 l 639 806 l 639 667 l 500 667 l 500 806 m 333 806 l 472 806 l 472 667 l 333 667 l 333 806 m 167 806 l 306 806 l 306 667 l 167 667 l 167 806 m 167 639 l 306 639 l 306 500 l 167 500 l 167 639 m 167 472 l 306 472 l 306 333 l 167 333 l 167 472 m 167 306 l 306 306 l 306 167 l 167 167 l 167 306 m 167 139 l 306 139 l 306 0 l 167 0 l 167 139 m 0 806 l 139 806 l 139 667 l 0 667 l 0 806 z "},"g":{"ha":833,"x_min":0,"x_max":639,"o":"m 333 -194 l 472 -194 l 472 -333 l 333 -333 l 333 -194 m 167 -194 l 306 -194 l 306 -333 l 167 -333 l 167 -194 m 500 -28 l 639 -28 l 639 -167 l 500 -167 l 500 -28 m 500 806 l 639 806 l 639 667 l 500 667 l 500 806 m 500 639 l 639 639 l 639 500 l 500 500 l 500 639 m 500 472 l 639 472 l 639 333 l 500 333 l 500 472 m 500 306 l 639 306 l 639 167 l 500 167 l 500 306 m 500 139 l 639 139 l 639 0 l 500 0 l 500 139 m 333 806 l 472 806 l 472 667 l 333 667 l 333 806 m 333 139 l 472 139 l 472 0 l 333 0 l 333 139 m 167 806 l 306 806 l 306 667 l 167 667 l 167 806 m 167 139 l 306 139 l 306 0 l 167 0 l 167 139 m 0 639 l 139 639 l 139 500 l 0 500 l 0 639 m 0 472 l 139 472 l 139 333 l 0 333 l 0 472 m 0 306 l 139 306 l 139 167 l 0 167 l 0 306 z "},"h":{"ha":833,"x_min":0,"x_max":639,"o":"m 0 1139 l 139 1139 l 139 1000 l 0 1000 l 0 1139 m 0 972 l 139 972 l 139 833 l 0 833 l 0 972 m 500 639 l 639 639 l 639 500 l 500 500 l 500 639 m 500 472 l 639 472 l 639 333 l 500 333 l 500 472 m 500 306 l 639 306 l 639 167 l 500 167 l 500 306 m 500 139 l 639 139 l 639 0 l 500 0 l 500 139 m 333 806 l 472 806 l 472 667 l 333 667 l 333 806 m 167 806 l 306 806 l 306 667 l 167 667 l 167 806 m 0 806 l 139 806 l 139 667 l 0 667 l 0 806 m 0 639 l 139 639 l 139 500 l 0 500 l 0 639 m 0 472 l 139 472 l 139 333 l 0 333 l 0 472 m 0 306 l 139 306 l 139 167 l 0 167 l 0 306 m 0 139 l 139 139 l 139 0 l 0 0 l 0 139 z "},"i":{"ha":333,"x_min":0,"x_max":139,"o":"m 0 1139 l 139 1139 l 139 1000 l 0 1000 l 0 1139 m 0 806 l 139 806 l 139 667 l 0 667 l 0 806 m 0 639 l 139 639 l 139 500 l 0 500 l 0 639 m 0 472 l 139 472 l 139 333 l 0 333 l 0 472 m 0 306 l 139 306 l 139 167 l 0 167 l 0 306 m 0 139 l 139 139 l 139 0 l 0 0 l 0 139 z "},"j":{"ha":667,"x_min":0,"x_max":472,"o":"m 167 -194 l 306 -194 l 306 -333 l 167 -333 l 167 -194 m 0 -194 l 139 -194 l 139 -333 l 0 -333 l 0 -194 m 333 -28 l 472 -28 l 472 -167 l 333 -167 l 333 -28 m 333 1139 l 472 1139 l 472 1000 l 333 1000 l 333 1139 m 333 806 l 472 806 l 472 667 l 333 667 l 333 806 m 333 639 l 472 639 l 472 500 l 333 500 l 333 639 m 333 472 l 472 472 l 472 333 l 333 333 l 333 472 m 333 306 l 472 306 l 472 167 l 333 167 l 333 306 m 333 139 l 472 139 l 472 0 l 333 0 l 333 139 z "},"k":{"ha":833,"x_min":0,"x_max":639,"o":"m 0 1139 l 139 1139 l 139 1000 l 0 1000 l 0 1139 m 0 972 l 139 972 l 139 833 l 0 833 l 0 972 m 500 806 l 639 806 l 639 667 l 500 667 l 500 806 m 500 639 l 639 639 l 639 500 l 500 500 l 500 639 m 500 306 l 639 306 l 639 167 l 500 167 l 500 306 m 500 139 l 639 139 l 639 0 l 500 0 l 500 139 m 333 472 l 472 472 l 472 333 l 333 333 l 333 472 m 167 472 l 306 472 l 306 333 l 167 333 l 167 472 m 0 806 l 139 806 l 139 667 l 0 667 l 0 806 m 0 639 l 139 639 l 139 500 l 0 500 l 0 639 m 0 472 l 139 472 l 139 333 l 0 333 l 0 472 m 0 306 l 139 306 l 139 167 l 0 167 l 0 306 m 0 139 l 139 139 l 139 0 l 0 0 l 0 139 z "},"l":{"ha":333,"x_min":0,"x_max":139,"o":"m 0 1139 l 139 1139 l 139 1000 l 0 1000 l 0 1139 m 0 972 l 139 972 l 139 833 l 0 833 l 0 972 m 0 806 l 139 806 l 139 667 l 0 667 l 0 806 m 0 639 l 139 639 l 139 500 l 0 500 l 0 639 m 0 472 l 139 472 l 139 333 l 0 333 l 0 472 m 0 306 l 139 306 l 139 167 l 0 167 l 0 306 m 0 139 l 139 139 l 139 0 l 0 0 l 0 139 z "},"m":{"ha":1333,"x_min":0,"x_max":1139,"o":"m 1000 639 l 1139 639 l 1139 500 l 1000 500 l 1000 639 m 1000 472 l 1139 472 l 1139 333 l 1000 333 l 1000 472 m 1000 306 l 1139 306 l 1139 167 l 1000 167 l 1000 306 m 1000 139 l 1139 139 l 1139 0 l 1000 0 l 1000 139 m 833 806 l 972 806 l 972 667 l 833 667 l 833 806 m 667 806 l 806 806 l 806 667 l 667 667 l 667 806 m 500 806 l 639 806 l 639 667 l 500 667 l 500 806 m 500 639 l 639 639 l 639 500 l 500 500 l 500 639 m 500 472 l 639 472 l 639 333 l 500 333 l 500 472 m 500 306 l 639 306 l 639 167 l 500 167 l 500 306 m 500 139 l 639 139 l 639 0 l 500 0 l 500 139 m 333 806 l 472 806 l 472 667 l 333 667 l 333 806 m 167 806 l 306 806 l 306 667 l 167 667 l 167 806 m 0 806 l 139 806 l 139 667 l 0 667 l 0 806 m 0 639 l 139 639 l 139 500 l 0 500 l 0 639 m 0 472 l 139 472 l 139 333 l 0 333 l 0 472 m 0 306 l 139 306 l 139 167 l 0 167 l 0 306 m 0 139 l 139 139 l 139 0 l 0 0 l 0 139 z "},"n":{"ha":833,"x_min":0,"x_max":639,"o":"m 500 639 l 639 639 l 639 500 l 500 500 l 500 639 m 500 472 l 639 472 l 639 333 l 500 333 l 500 472 m 500 306 l 639 306 l 639 167 l 500 167 l 500 306 m 500 139 l 639 139 l 639 0 l 500 0 l 500 139 m 333 806 l 472 806 l 472 667 l 333 667 l 333 806 m 167 806 l 306 806 l 306 667 l 167 667 l 167 806 m 0 806 l 139 806 l 139 667 l 0 667 l 0 806 m 0 639 l 139 639 l 139 500 l 0 500 l 0 639 m 0 472 l 139 472 l 139 333 l 0 333 l 0 472 m 0 306 l 139 306 l 139 167 l 0 167 l 0 306 m 0 139 l 139 139 l 139 0 l 0 0 l 0 139 z "},"o":{"ha":833,"x_min":0,"x_max":639,"o":"m 500 639 l 639 639 l 639 500 l 500 500 l 500 639 m 500 472 l 639 472 l 639 333 l 500 333 l 500 472 m 500 306 l 639 306 l 639 167 l 500 167 l 500 306 m 333 806 l 472 806 l 472 667 l 333 667 l 333 806 m 333 139 l 472 139 l 472 0 l 333 0 l 333 139 m 167 806 l 306 806 l 306 667 l 167 667 l 167 806 m 167 139 l 306 139 l 306 0 l 167 0 l 167 139 m 0 639 l 139 639 l 139 500 l 0 500 l 0 639 m 0 472 l 139 472 l 139 333 l 0 333 l 0 472 m 0 306 l 139 306 l 139 167 l 0 167 l 0 306 z "},"p":{"ha":833,"x_min":0,"x_max":639,"o":"m 0 -194 l 139 -194 l 139 -333 l 0 -333 l 0 -194 m 0 -28 l 139 -28 l 139 -167 l 0 -167 l 0 -28 m 500 639 l 639 639 l 639 500 l 500 500 l 500 639 m 500 472 l 639 472 l 639 333 l 500 333 l 500 472 m 500 306 l 639 306 l 639 167 l 500 167 l 500 306 m 333 806 l 472 806 l 472 667 l 333 667 l 333 806 m 333 139 l 472 139 l 472 0 l 333 0 l 333 139 m 167 806 l 306 806 l 306 667 l 167 667 l 167 806 m 167 139 l 306 139 l 306 0 l 167 0 l 167 139 m 0 806 l 139 806 l 139 667 l 0 667 l 0 806 m 0 639 l 139 639 l 139 500 l 0 500 l 0 639 m 0 472 l 139 472 l 139 333 l 0 333 l 0 472 m 0 306 l 139 306 l 139 167 l 0 167 l 0 306 m 0 139 l 139 139 l 139 0 l 0 0 l 0 139 z "},"q":{"ha":833,"x_min":0,"x_max":639,"o":"m 500 -194 l 639 -194 l 639 -333 l 500 -333 l 500 -194 m 500 -28 l 639 -28 l 639 -167 l 500 -167 l 500 -28 m 500 806 l 639 806 l 639 667 l 500 667 l 500 806 m 500 639 l 639 639 l 639 500 l 500 500 l 500 639 m 500 472 l 639 472 l 639 333 l 500 333 l 500 472 m 500 306 l 639 306 l 639 167 l 500 167 l 500 306 m 500 139 l 639 139 l 639 0 l 500 0 l 500 139 m 333 806 l 472 806 l 472 667 l 333 667 l 333 806 m 333 139 l 472 139 l 472 0 l 333 0 l 333 139 m 167 806 l 306 806 l 306 667 l 167 667 l 167 806 m 167 139 l 306 139 l 306 0 l 167 0 l 167 139 m 0 639 l 139 639 l 139 500 l 0 500 l 0 639 m 0 472 l 139 472 l 139 333 l 0 333 l 0 472 m 0 306 l 139 306 l 139 167 l 0 167 l 0 306 z "},"r":{"ha":667,"x_min":0,"x_max":472,"o":"m 333 806 l 472 806 l 472 667 l 333 667 l 333 806 m 167 806 l 306 806 l 306 667 l 167 667 l 167 806 m 0 639 l 139 639 l 139 500 l 0 500 l 0 639 m 0 472 l 139 472 l 139 333 l 0 333 l 0 472 m 0 306 l 139 306 l 139 167 l 0 167 l 0 306 m 0 139 l 139 139 l 139 0 l 0 0 l 0 139 z "},"s":{"ha":833,"x_min":0,"x_max":639,"o":"m 500 806 l 639 806 l 639 667 l 500 667 l 500 806 m 500 306 l 639 306 l 639 167 l 500 167 l 500 306 m 333 806 l 472 806 l 472 667 l 333 667 l 333 806 m 333 472 l 472 472 l 472 333 l 333 333 l 333 472 m 333 139 l 472 139 l 472 0 l 333 0 l 333 139 m 167 806 l 306 806 l 306 667 l 167 667 l 167 806 m 167 472 l 306 472 l 306 333 l 167 333 l 167 472 m 167 139 l 306 139 l 306 0 l 167 0 l 167 139 m 0 639 l 139 639 l 139 500 l 0 500 l 0 639 m 0 139 l 139 139 l 139 0 l 0 0 l 0 139 z "},"t":{"ha":833,"x_min":0,"x_max":639,"o":"m 167 1139 l 306 1139 l 306 1000 l 167 1000 l 167 1139 m 167 972 l 306 972 l 306 833 l 167 833 l 167 972 m 500 806 l 639 806 l 639 667 l 500 667 l 500 806 m 500 139 l 639 139 l 639 0 l 500 0 l 500 139 m 333 806 l 472 806 l 472 667 l 333 667 l 333 806 m 333 139 l 472 139 l 472 0 l 333 0 l 333 139 m 167 806 l 306 806 l 306 667 l 167 667 l 167 806 m 167 639 l 306 639 l 306 500 l 167 500 l 167 639 m 167 472 l 306 472 l 306 333 l 167 333 l 167 472 m 167 306 l 306 306 l 306 167 l 167 167 l 167 306 m 0 806 l 139 806 l 139 667 l 0 667 l 0 806 z "},"u":{"ha":833,"x_min":0,"x_max":639,"o":"m 500 806 l 639 806 l 639 667 l 500 667 l 500 806 m 500 639 l 639 639 l 639 500 l 500 500 l 500 639 m 500 472 l 639 472 l 639 333 l 500 333 l 500 472 m 500 306 l 639 306 l 639 167 l 500 167 l 500 306 m 500 139 l 639 139 l 639 0 l 500 0 l 500 139 m 333 139 l 472 139 l 472 0 l 333 0 l 333 139 m 167 139 l 306 139 l 306 0 l 167 0 l 167 139 m 0 806 l 139 806 l 139 667 l 0 667 l 0 806 m 0 639 l 139 639 l 139 500 l 0 500 l 0 639 m 0 472 l 139 472 l 139 333 l 0 333 l 0 472 m 0 306 l 139 306 l 139 167 l 0 167 l 0 306 z "},"v":{"ha":1000,"x_min":0,"x_max":806,"o":"m 667 806 l 806 806 l 806 667 l 667 667 l 667 806 m 667 639 l 806 639 l 806 500 l 667 500 l 667 639 m 667 472 l 806 472 l 806 333 l 667 333 l 667 472 m 500 306 l 639 306 l 639 167 l 500 167 l 500 306 m 333 139 l 472 139 l 472 0 l 333 0 l 333 139 m 167 306 l 306 306 l 306 167 l 167 167 l 167 306 m 0 806 l 139 806 l 139 667 l 0 667 l 0 806 m 0 639 l 139 639 l 139 500 l 0 500 l 0 639 m 0 472 l 139 472 l 139 333 l 0 333 l 0 472 z "},"w":{"ha":1000,"x_min":0,"x_max":806,"o":"m 667 806 l 806 806 l 806 667 l 667 667 l 667 806 m 667 639 l 806 639 l 806 500 l 667 500 l 667 639 m 667 472 l 806 472 l 806 333 l 667 333 l 667 472 m 667 306 l 806 306 l 806 167 l 667 167 l 667 306 m 667 139 l 806 139 l 806 0 l 667 0 l 667 139 m 500 306 l 639 306 l 639 167 l 500 167 l 500 306 m 333 472 l 472 472 l 472 333 l 333 333 l 333 472 m 167 306 l 306 306 l 306 167 l 167 167 l 167 306 m 0 806 l 139 806 l 139 667 l 0 667 l 0 806 m 0 639 l 139 639 l 139 500 l 0 500 l 0 639 m 0 472 l 139 472 l 139 333 l 0 333 l 0 472 m 0 306 l 139 306 l 139 167 l 0 167 l 0 306 m 0 139 l 139 139 l 139 0 l 0 0 l 0 139 z "},"x":{"ha":833,"x_min":0,"x_max":639,"o":"m 500 806 l 639 806 l 639 667 l 500 667 l 500 806 m 500 639 l 639 639 l 639 500 l 500 500 l 500 639 m 500 306 l 639 306 l 639 167 l 500 167 l 500 306 m 500 139 l 639 139 l 639 0 l 500 0 l 500 139 m 333 472 l 472 472 l 472 333 l 333 333 l 333 472 m 167 472 l 306 472 l 306 333 l 167 333 l 167 472 m 0 806 l 139 806 l 139 667 l 0 667 l 0 806 m 0 639 l 139 639 l 139 500 l 0 500 l 0 639 m 0 306 l 139 306 l 139 167 l 0 167 l 0 306 m 0 139 l 139 139 l 139 0 l 0 0 l 0 139 z "},"y":{"ha":833,"x_min":0,"x_max":639,"o":"m 333 -194 l 472 -194 l 472 -333 l 333 -333 l 333 -194 m 167 -194 l 306 -194 l 306 -333 l 167 -333 l 167 -194 m 0 -194 l 139 -194 l 139 -333 l 0 -333 l 0 -194 m 500 -28 l 639 -28 l 639 -167 l 500 -167 l 500 -28 m 500 806 l 639 806 l 639 667 l 500 667 l 500 806 m 500 639 l 639 639 l 639 500 l 500 500 l 500 639 m 500 472 l 639 472 l 639 333 l 500 333 l 500 472 m 500 306 l 639 306 l 639 167 l 500 167 l 500 306 m 500 139 l 639 139 l 639 0 l 500 0 l 500 139 m 333 139 l 472 139 l 472 0 l 333 0 l 333 139 m 167 139 l 306 139 l 306 0 l 167 0 l 167 139 m 0 806 l 139 806 l 139 667 l 0 667 l 0 806 m 0 639 l 139 639 l 139 500 l 0 500 l 0 639 m 0 472 l 139 472 l 139 333 l 0 333 l 0 472 m 0 306 l 139 306 l 139 167 l 0 167 l 0 306 z "},"z":{"ha":833,"x_min":0,"x_max":639,"o":"m 500 806 l 639 806 l 639 667 l 500 667 l 500 806 m 500 139 l 639 139 l 639 0 l 500 0 l 500 139 m 333 806 l 472 806 l 472 667 l 333 667 l 333 806 m 333 639 l 472 639 l 472 500 l 333 500 l 333 639 m 333 139 l 472 139 l 472 0 l 333 0 l 333 139 m 167 806 l 306 806 l 306 667 l 167 667 l 167 806 m 167 472 l 306 472 l 306 333 l 167 333 l 167 472 m 167 139 l 306 139 l 306 0 l 167 0 l 167 139 m 0 806 l 139 806 l 139 667 l 0 667 l 0 806 m 0 306 l 139 306 l 139 167 l 0 167 l 0 306 m 0 139 l 139 139 l 139 0 l 0 0 l 0 139 z "},"!":{"ha":333,"x_min":0,"x_max":139,"o":"m 0 1139 l 139 1139 l 139 1000 l 0 1000 l 0 1139 m 0 972 l 139 972 l 139 833 l 0 833 l 0 972 m 0 806 l 139 806 l 139 667 l 0 667 l 0 806 m 0 639 l 139 639 l 139 500 l 0 500 l 0 639 m 0 472 l 139 472 l 139 333 l 0 333 l 0 472 m 0 139 l 139 139 l 139 0 l 0 0 l 0 139 z "},"#":{"ha":1000,"x_min":0,"x_max":806,"o":"m 667 972 l 806 972 l 806 833 l 667 833 l 667 972 m 500 1139 l 639 1139 l 639 1000 l 500 1000 l 500 1139 m 500 972 l 639 972 l 639 833 l 500 833 l 500 972 m 333 972 l 472 972 l 472 833 l 333 833 l 333 972 m 167 1139 l 306 1139 l 306 1000 l 167 1000 l 167 1139 m 167 972 l 306 972 l 306 833 l 167 833 l 167 972 m 0 972 l 139 972 l 139 833 l 0 833 l 0 972 m 667 306 l 806 306 l 806 167 l 667 167 l 667 306 m 500 806 l 639 806 l 639 667 l 500 667 l 500 806 m 500 639 l 639 639 l 639 500 l 500 500 l 500 639 m 500 472 l 639 472 l 639 333 l 500 333 l 500 472 m 500 306 l 639 306 l 639 167 l 500 167 l 500 306 m 500 139 l 639 139 l 639 0 l 500 0 l 500 139 m 333 306 l 472 306 l 472 167 l 333 167 l 333 306 m 167 806 l 306 806 l 306 667 l 167 667 l 167 806 m 167 639 l 306 639 l 306 500 l 167 500 l 167 639 m 167 472 l 306 472 l 306 333 l 167 333 l 167 472 m 167 306 l 306 306 l 306 167 l 167 167 l 167 306 m 167 139 l 306 139 l 306 0 l 167 0 l 167 139 m 0 306 l 139 306 l 139 167 l 0 167 l 0 306 z "},"$":{"ha":1000,"x_min":0,"x_max":806,"o":"m 333 -28 l 472 -28 l 472 -167 l 333 -167 l 333 -28 m 333 1306 l 472 1306 l 472 1167 l 333 1167 l 333 1306 m 333 472 l 472 472 l 472 333 l 333 333 l 333 472 m 333 306 l 472 306 l 472 167 l 333 167 l 333 306 m 333 972 l 472 972 l 472 833 l 333 833 l 333 972 m 333 806 l 472 806 l 472 667 l 333 667 l 333 806 m 667 972 l 806 972 l 806 833 l 667 833 l 667 972 m 500 1139 l 639 1139 l 639 1000 l 500 1000 l 500 1139 m 333 1139 l 472 1139 l 472 1000 l 333 1000 l 333 1139 m 167 1139 l 306 1139 l 306 1000 l 167 1000 l 167 1139 m 0 972 l 139 972 l 139 833 l 0 833 l 0 972 m 667 472 l 806 472 l 806 333 l 667 333 l 667 472 m 667 306 l 806 306 l 806 167 l 667 167 l 667 306 m 500 639 l 639 639 l 639 500 l 500 500 l 500 639 m 500 139 l 639 139 l 639 0 l 500 0 l 500 139 m 333 639 l 472 639 l 472 500 l 333 500 l 333 639 m 333 139 l 472 139 l 472 0 l 333 0 l 333 139 m 167 639 l 306 639 l 306 500 l 167 500 l 167 639 m 167 139 l 306 139 l 306 0 l 167 0 l 167 139 m 0 806 l 139 806 l 139 667 l 0 667 l 0 806 m 0 306 l 139 306 l 139 167 l 0 167 l 0 306 m 667 972 l 806 972 l 806 833 l 667 833 l 667 972 m 500 1139 l 639 1139 l 639 1000 l 500 1000 l 500 1139 m 333 1139 l 472 1139 l 472 1000 l 333 1000 l 333 1139 m 167 1139 l 306 1139 l 306 1000 l 167 1000 l 167 1139 m 0 972 l 139 972 l 139 833 l 0 833 l 0 972 m 667 472 l 806 472 l 806 333 l 667 333 l 667 472 m 667 306 l 806 306 l 806 167 l 667 167 l 667 306 m 500 639 l 639 639 l 639 500 l 500 500 l 500 639 m 500 139 l 639 139 l 639 0 l 500 0 l 500 139 m 333 639 l 472 639 l 472 500 l 333 500 l 333 639 m 333 139 l 472 139 l 472 0 l 333 0 l 333 139 m 167 639 l 306 639 l 306 500 l 167 500 l 167 639 m 167 139 l 306 139 l 306 0 l 167 0 l 167 139 m 0 806 l 139 806 l 139 667 l 0 667 l 0 806 m 0 306 l 139 306 l 139 167 l 0 167 l 0 306 z "},"/":{"ha":1000,"x_min":0,"x_max":806,"o":"m 667 972 l 806 972 l 806 833 l 667 833 l 667 972 m 500 806 l 639 806 l 639 667 l 500 667 l 500 806 m 333 639 l 472 639 l 472 500 l 333 500 l 333 639 m 167 472 l 306 472 l 306 333 l 167 333 l 167 472 m 0 306 l 139 306 l 139 167 l 0 167 l 0 306 z "},"%":{"ha":1000,"x_min":0,"x_max":806,"o":"m 667 972 l 806 972 l 806 833 l 667 833 l 667 972 m 167 1139 l 306 1139 l 306 1000 l 167 1000 l 167 1139 m 167 972 l 306 972 l 306 833 l 167 833 l 167 972 m 0 1139 l 139 1139 l 139 1000 l 0 1000 l 0 1139 m 0 972 l 139 972 l 139 833 l 0 833 l 0 972 m 667 306 l 806 306 l 806 167 l 667 167 l 667 306 m 667 139 l 806 139 l 806 0 l 667 0 l 667 139 m 500 806 l 639 806 l 639 667 l 500 667 l 500 806 m 500 306 l 639 306 l 639 167 l 500 167 l 500 306 m 500 139 l 639 139 l 639 0 l 500 0 l 500 139 m 333 639 l 472 639 l 472 500 l 333 500 l 333 639 m 167 472 l 306 472 l 306 333 l 167 333 l 167 472 m 0 306 l 139 306 l 139 167 l 0 167 l 0 306 z "},"+":{"ha":1000,"x_min":0,"x_max":806,"o":"m 333 972 l 472 972 l 472 833 l 333 833 l 333 972 m 667 639 l 806 639 l 806 500 l 667 500 l 667 639 m 500 639 l 639 639 l 639 500 l 500 500 l 500 639 m 333 806 l 472 806 l 472 667 l 333 667 l 333 806 m 333 639 l 472 639 l 472 500 l 333 500 l 333 639 m 333 472 l 472 472 l 472 333 l 333 333 l 333 472 m 333 306 l 472 306 l 472 167 l 333 167 l 333 306 m 167 639 l 306 639 l 306 500 l 167 500 l 167 639 m 0 639 l 139 639 l 139 500 l 0 500 l 0 639 z "},"-":{"ha":1000,"x_min":0,"x_max":806,"o":"m 667 639 l 806 639 l 806 500 l 667 500 l 667 639 m 500 639 l 639 639 l 639 500 l 500 500 l 500 639 m 333 639 l 472 639 l 472 500 l 333 500 l 333 639 m 167 639 l 306 639 l 306 500 l 167 500 l 167 639 m 0 639 l 139 639 l 139 500 l 0 500 l 0 639 z "},"=":{"ha":1000,"x_min":0,"x_max":806,"o":"m 667 806 l 806 806 l 806 667 l 667 667 l 667 806 m 667 472 l 806 472 l 806 333 l 667 333 l 667 472 m 500 806 l 639 806 l 639 667 l 500 667 l 500 806 m 500 472 l 639 472 l 639 333 l 500 333 l 500 472 m 333 806 l 472 806 l 472 667 l 333 667 l 333 806 m 333 472 l 472 472 l 472 333 l 333 333 l 333 472 m 167 806 l 306 806 l 306 667 l 167 667 l 167 806 m 167 472 l 306 472 l 306 333 l 167 333 l 167 472 m 0 806 l 139 806 l 139 667 l 0 667 l 0 806 m 0 472 l 139 472 l 139 333 l 0 333 l 0 472 z "},"(":{"ha":500,"x_min":0,"x_max":306,"o":"m 167 1139 l 306 1139 l 306 1000 l 167 1000 l 167 1139 m 0 972 l 139 972 l 139 833 l 0 833 l 0 972 m 167 139 l 306 139 l 306 0 l 167 0 l 167 139 m 0 806 l 139 806 l 139 667 l 0 667 l 0 806 m 0 639 l 139 639 l 139 500 l 0 500 l 0 639 m 0 472 l 139 472 l 139 333 l 0 333 l 0 472 m 0 306 l 139 306 l 139 167 l 0 167 l 0 306 z "},")":{"ha":500,"x_min":0,"x_max":306,"o":"m 139 1000 l 0 1000 l 0 1139 l 139 1139 l 139 1000 m 306 833 l 167 833 l 167 972 l 306 972 l 306 833 m 139 0 l 0 0 l 0 139 l 139 139 l 139 0 m 306 667 l 167 667 l 167 806 l 306 806 l 306 667 m 306 500 l 167 500 l 167 639 l 306 639 l 306 500 m 306 333 l 167 333 l 167 472 l 306 472 l 306 333 m 306 167 l 167 167 l 167 306 l 306 306 l 306 167 z "},"*":{"ha":1000,"x_min":0,"x_max":806,"o":"m 667 972 l 806 972 l 806 833 l 667 833 l 667 972 m 333 972 l 472 972 l 472 833 l 333 833 l 333 972 m 0 972 l 139 972 l 139 833 l 0 833 l 0 972 m 667 639 l 806 639 l 806 500 l 667 500 l 667 639 m 667 306 l 806 306 l 806 167 l 667 167 l 667 306 m 500 806 l 639 806 l 639 667 l 500 667 l 500 806 m 500 639 l 639 639 l 639 500 l 500 500 l 500 639 m 500 472 l 639 472 l 639 333 l 500 333 l 500 472 m 333 806 l 472 806 l 472 667 l 333 667 l 333 806 m 333 472 l 472 472 l 472 333 l 333 333 l 333 472 m 333 306 l 472 306 l 472 167 l 333 167 l 333 306 m 167 806 l 306 806 l 306 667 l 167 667 l 167 806 m 167 639 l 306 639 l 306 500 l 167 500 l 167 639 m 167 472 l 306 472 l 306 333 l 167 333 l 167 472 m 0 639 l 139 639 l 139 500 l 0 500 l 0 639 m 0 306 l 139 306 l 139 167 l 0 167 l 0 306 z "},".":{"ha":500,"x_min":0,"x_max":306,"o":"m 167 306 l 306 306 l 306 167 l 167 167 l 167 306 m 167 139 l 306 139 l 306 0 l 167 0 l 167 139 m 0 306 l 139 306 l 139 167 l 0 167 l 0 306 m 0 139 l 139 139 l 139 0 l 0 0 l 0 139 z "},",":{"ha":500,"x_min":0,"x_max":306,"o":"m 0 -28 l 139 -28 l 139 -167 l 0 -167 l 0 -28 m 167 306 l 306 306 l 306 167 l 167 167 l 167 306 m 167 139 l 306 139 l 306 0 l 167 0 l 167 139 m 0 306 l 139 306 l 139 167 l 0 167 l 0 306 z "},"'":{"ha":333,"x_min":0,"x_max":139,"o":"m 0 1139 l 139 1139 l 139 1000 l 0 1000 l 0 1139 m 0 972 l 139 972 l 139 833 l 0 833 l 0 972 m 0 806 l 139 806 l 139 667 l 0 667 l 0 806 z "},":":{"ha":500,"x_min":0,"x_max":306,"o":"m 167 972 l 306 972 l 306 833 l 167 833 l 167 972 m 0 972 l 139 972 l 139 833 l 0 833 l 0 972 m 167 806 l 306 806 l 306 667 l 167 667 l 167 806 m 167 472 l 306 472 l 306 333 l 167 333 l 167 472 m 167 306 l 306 306 l 306 167 l 167 167 l 167 306 m 0 806 l 139 806 l 139 667 l 0 667 l 0 806 m 0 472 l 139 472 l 139 333 l 0 333 l 0 472 m 0 306 l 139 306 l 139 167 l 0 167 l 0 306 z "},";":{"ha":500,"x_min":0,"x_max":306,"o":"m 167 972 l 306 972 l 306 833 l 167 833 l 167 972 m 0 972 l 139 972 l 139 833 l 0 833 l 0 972 m 167 806 l 306 806 l 306 667 l 167 667 l 167 806 m 167 306 l 306 306 l 306 167 l 167 167 l 167 306 m 167 139 l 306 139 l 306 0 l 167 0 l 167 139 m 0 806 l 139 806 l 139 667 l 0 667 l 0 806 m 0 306 l 139 306 l 139 167 l 0 167 l 0 306 m 0 -28 l 139 -28 l 139 -167 l 0 -167 l 0 -28 z "},"[":{"ha":667,"x_min":0,"x_max":472,"o":"m 333 1139 l 472 1139 l 472 1000 l 333 1000 l 333 1139 m 167 1139 l 306 1139 l 306 1000 l 167 1000 l 167 1139 m 0 1139 l 139 1139 l 139 1000 l 0 1000 l 0 1139 m 0 972 l 139 972 l 139 833 l 0 833 l 0 972 m 333 139 l 472 139 l 472 0 l 333 0 l 333 139 m 167 139 l 306 139 l 306 0 l 167 0 l 167 139 m 0 806 l 139 806 l 139 667 l 0 667 l 0 806 m 0 639 l 139 639 l 139 500 l 0 500 l 0 639 m 0 472 l 139 472 l 139 333 l 0 333 l 0 472 m 0 306 l 139 306 l 139 167 l 0 167 l 0 306 m 0 139 l 139 139 l 139 0 l 0 0 l 0 139 z "},"]":{"ha":667,"x_min":0,"x_max":472,"o":"m 139 1000 l 0 1000 l 0 1139 l 139 1139 l 139 1000 m 306 1000 l 167 1000 l 167 1139 l 306 1139 l 306 1000 m 472 1000 l 333 1000 l 333 1139 l 472 1139 l 472 1000 m 472 833 l 333 833 l 333 972 l 472 972 l 472 833 m 139 0 l 0 0 l 0 139 l 139 139 l 139 0 m 306 0 l 167 0 l 167 139 l 306 139 l 306 0 m 472 667 l 333 667 l 333 806 l 472 806 l 472 667 m 472 500 l 333 500 l 333 639 l 472 639 l 472 500 m 472 333 l 333 333 l 333 472 l 472 472 l 472 333 m 472 167 l 333 167 l 333 306 l 472 306 l 472 167 m 472 0 l 333 0 l 333 139 l 472 139 l 472 0 z "},"\\":{"ha":1000,"x_min":0,"x_max":806,"o":"m 139 833 l 0 833 l 0 972 l 139 972 l 139 833 m 306 667 l 167 667 l 167 806 l 306 806 l 306 667 m 472 500 l 333 500 l 333 639 l 472 639 l 472 500 m 639 333 l 500 333 l 500 472 l 639 472 l 639 333 m 806 167 l 667 167 l 667 306 l 806 306 l 806 167 z "},"?":{"ha":1000,"x_min":0,"x_max":806,"o":"m 667 972 l 806 972 l 806 833 l 667 833 l 667 972 m 500 1139 l 639 1139 l 639 1000 l 500 1000 l 500 1139 m 333 1139 l 472 1139 l 472 1000 l 333 1000 l 333 1139 m 167 1139 l 306 1139 l 306 1000 l 167 1000 l 167 1139 m 0 972 l 139 972 l 139 833 l 0 833 l 0 972 m 667 806 l 806 806 l 806 667 l 667 667 l 667 806 m 500 639 l 639 639 l 639 500 l 500 500 l 500 639 m 333 472 l 472 472 l 472 333 l 333 333 l 333 472 m 333 139 l 472 139 l 472 0 l 333 0 l 333 139 z "},"@":{"ha":1000,"x_min":0,"x_max":806,"o":"m 667 972 l 806 972 l 806 833 l 667 833 l 667 972 m 500 1139 l 639 1139 l 639 1000 l 500 1000 l 500 1139 m 333 1139 l 472 1139 l 472 1000 l 333 1000 l 333 1139 m 167 1139 l 306 1139 l 306 1000 l 167 1000 l 167 1139 m 0 972 l 139 972 l 139 833 l 0 833 l 0 972 m 667 806 l 806 806 l 806 667 l 667 667 l 667 806 m 667 639 l 806 639 l 806 500 l 667 500 l 667 639 m 500 806 l 639 806 l 639 667 l 500 667 l 500 806 m 500 639 l 639 639 l 639 500 l 500 500 l 500 639 m 500 472 l 639 472 l 639 333 l 500 333 l 500 472 m 500 139 l 639 139 l 639 0 l 500 0 l 500 139 m 333 806 l 472 806 l 472 667 l 333 667 l 333 806 m 333 639 l 472 639 l 472 500 l 333 500 l 333 639 m 333 472 l 472 472 l 472 333 l 333 333 l 333 472 m 333 139 l 472 139 l 472 0 l 333 0 l 333 139 m 167 139 l 306 139 l 306 0 l 167 0 l 167 139 m 0 806 l 139 806 l 139 667 l 0 667 l 0 806 m 0 639 l 139 639 l 139 500 l 0 500 l 0 639 m 0 472 l 139 472 l 139 333 l 0 333 l 0 472 m 0 306 l 139 306 l 139 167 l 0 167 l 0 306 z "},"<":{"ha":667,"x_min":0,"x_max":472,"o":"m 333 972 l 472 972 l 472 833 l 333 833 l 333 972 m 333 306 l 472 306 l 472 167 l 333 167 l 333 306 m 167 806 l 306 806 l 306 667 l 167 667 l 167 806 m 167 472 l 306 472 l 306 333 l 167 333 l 167 472 m 0 639 l 139 639 l 139 500 l 0 500 l 0 639 z "},">":{"ha":667,"x_min":0,"x_max":472,"o":"m 139 833 l 0 833 l 0 972 l 139 972 l 139 833 m 139 167 l 0 167 l 0 306 l 139 306 l 139 167 m 306 667 l 167 667 l 167 806 l 306 806 l 306 667 m 306 333 l 167 333 l 167 472 l 306 472 l 306 333 m 472 500 l 333 500 l 333 639 l 472 639 l 472 500 z "},"^":{"ha":1000,"x_min":0,"x_max":806,"o":"m 806 806 l 806 667 l 667 667 l 667 806 l 806 806 m 139 806 l 139 667 l 0 667 l 0 806 l 139 806 m 639 972 l 639 833 l 500 833 l 500 972 l 639 972 m 306 972 l 306 833 l 167 833 l 167 972 l 306 972 m 472 1139 l 472 1000 l 333 1000 l 333 1139 l 472 1139 z "},"_":{"ha":1000,"x_min":0,"x_max":806,"o":"m 667 139 l 806 139 l 806 0 l 667 0 l 667 139 m 500 139 l 639 139 l 639 0 l 500 0 l 500 139 m 333 139 l 472 139 l 472 0 l 333 0 l 333 139 m 167 139 l 306 139 l 306 0 l 167 0 l 167 139 m 0 139 l 139 139 l 139 0 l 0 0 l 0 139 z "},"|":{"ha":333,"x_min":0,"x_max":139,"o":"m 0 1139 l 139 1139 l 139 1000 l 0 1000 l 0 1139 m 0 972 l 139 972 l 139 833 l 0 833 l 0 972 m 0 806 l 139 806 l 139 667 l 0 667 l 0 806 m 0 639 l 139 639 l 139 500 l 0 500 l 0 639 m 0 472 l 139 472 l 139 333 l 0 333 l 0 472 m 0 306 l 139 306 l 139 167 l 0 167 l 0 306 m 0 139 l 139 139 l 139 0 l 0 0 l 0 139 z "},"{":{"ha":667,"x_min":0,"x_max":472,"o":"m 333 1139 l 472 1139 l 472 1000 l 333 1000 l 333 1139 m 167 972 l 306 972 l 306 833 l 167 833 l 167 972 m 333 139 l 472 139 l 472 0 l 333 0 l 333 139 m 167 806 l 306 806 l 306 667 l 167 667 l 167 806 m 0 639 l 139 639 l 139 500 l 0 500 l 0 639 m 167 472 l 306 472 l 306 333 l 167 333 l 167 472 m 167 306 l 306 306 l 306 167 l 167 167 l 167 306 z "},"}":{"ha":667,"x_min":0,"x_max":472,"o":"m 139 1000 l 0 1000 l 0 1139 l 139 1139 l 139 1000 m 306 833 l 167 833 l 167 972 l 306 972 l 306 833 m 139 0 l 0 0 l 0 139 l 139 139 l 139 0 m 306 667 l 167 667 l 167 806 l 306 806 l 306 667 m 472 500 l 333 500 l 333 639 l 472 639 l 472 500 m 306 333 l 167 333 l 167 472 l 306 472 l 306 333 m 306 167 l 167 167 l 167 306 l 306 306 l 306 167 z "},"`":{"ha":500,"x_min":0,"x_max":306,"o":"m 0 1139 l 139 1139 l 139 1000 l 0 1000 l 0 1139 m 167 972 l 306 972 l 306 833 l 167 833 l 167 972 z "},"~":{"ha":833,"x_min":0,"x_max":639,"o":"m 500 806 l 639 806 l 639 667 l 500 667 l 500 806 m 333 639 l 472 639 l 472 500 l 333 500 l 333 639 m 167 806 l 306 806 l 306 667 l 167 667 l 167 806 m 0 639 l 139 639 l 139 500 l 0 500 l 0 639 z "},"&":{"ha":1167,"x_min":0,"x_max":972,"o":"m 500 972 l 639 972 l 639 833 l 500 833 l 500 972 m 333 1139 l 472 1139 l 472 1000 l 333 1000 l 333 1139 m 167 1139 l 306 1139 l 306 1000 l 167 1000 l 167 1139 m 0 972 l 139 972 l 139 833 l 0 833 l 0 972 m 833 639 l 972 639 l 972 500 l 833 500 l 833 639 m 833 139 l 972 139 l 972 0 l 833 0 l 833 139 m 667 639 l 806 639 l 806 500 l 667 500 l 667 639 m 667 139 l 806 139 l 806 0 l 667 0 l 667 139 m 500 806 l 639 806 l 639 667 l 500 667 l 500 806 m 500 472 l 639 472 l 639 333 l 500 333 l 500 472 m 500 306 l 639 306 l 639 167 l 500 167 l 500 306 m 333 639 l 472 639 l 472 500 l 333 500 l 333 639 m 333 139 l 472 139 l 472 0 l 333 0 l 333 139 m 167 639 l 306 639 l 306 500 l 167 500 l 167 639 m 167 139 l 306 139 l 306 0 l 167 0 l 167 139 m 0 806 l 139 806 l 139 667 l 0 667 l 0 806 m 0 472 l 139 472 l 139 333 l 0 333 l 0 472 m 0 306 l 139 306 l 139 167 l 0 167 l 0 306 z "},"\"":{"ha":667,"x_min":0,"x_max":472,"o":"m 472 667 l 333 667 l 333 806 l 472 806 l 472 667 m 139 667 l 0 667 l 0 806 l 139 806 l 139 667 m 472 833 l 333 833 l 333 972 l 472 972 l 472 833 m 472 1000 l 333 1000 l 333 1139 l 472 1139 l 472 1000 m 139 833 l 0 833 l 0 972 l 139 972 l 139 833 m 139 1000 l 0 1000 l 0 1139 l 139 1139 l 139 1000 z "}}}
